<?xml version="1.0" encoding="UTF-8"?>
<!DOCTYPE svg PUBLIC "-//W3C//DTD SVG 1.1//EN" "http://www.w3.org/Graphics/SVG/1.1/DTD/svg11.dtd">
<svg xmlns="http://www.w3.org/2000/svg" version="1.1" width="2217px" height="2214px" style="shape-rendering:geometricPrecision; text-rendering:geometricPrecision; image-rendering:optimizeQuality; fill-rule:evenodd; clip-rule:evenodd" xmlns:xlink="http://www.w3.org/1999/xlink">
<defs>
<style type="text/css">
<![CDATA[
.rotating-flower {
    transform-origin: 1108.5px 1107.0px;
    animation: rotateClockwise 0.2s linear infinite;
}
@keyframes rotateClockwise {
    from { transform: rotate(0deg); }
    to { transform: rotate(22.5deg); }
}
]]>
</style>
</defs>
<g class="rotating-flower">
<g><path style="opacity:1" fill="#ecedec" d="M 1101.5,-0.5 C 1107.17,-0.5 1112.83,-0.5 1118.5,-0.5C 1132.86,5.01577 1143.69,14.6824 1151,28.5C 1168.39,58.3363 1180.06,90.3363 1186,124.5C 1188.47,138.768 1190.47,153.102 1192,167.5C 1196.23,215.953 1199.73,264.453 1202.5,313C 1196.16,456.543 1180.33,599.043 1155,740.5C 1154.05,747.265 1150.55,752.099 1144.5,755C 1122.2,757.736 1099.87,758.069 1077.5,756C 1066.04,753.877 1058.21,747.377 1054,736.5C 1051.59,729.276 1049.59,721.943 1048,714.5C 1023.92,588.455 1011.42,461.288 1010.5,333C 1009.39,268.768 1013.89,204.935 1024,141.5C 1027.44,117.398 1031.44,93.3975 1036,69.5C 1048.45,37.2252 1070.28,13.8918 1101.5,-0.5 Z"/></g>
<g><path style="opacity:1" fill="#ecedec" d="M 1493.5,96.5 C 1519.11,93.8776 1536.95,104.211 1547,127.5C 1554.19,150.302 1558.69,173.635 1560.5,197.5C 1560.62,200.064 1561.95,201.564 1564.5,202C 1538.92,309.735 1502.42,413.568 1455,513.5C 1408.59,610.37 1355.59,703.036 1296,791.5C 1293.13,794.704 1289.96,797.537 1286.5,800C 1282.83,800.667 1279.17,800.667 1275.5,800C 1251.88,789.572 1228.54,778.572 1205.5,767C 1200.09,761.836 1197.42,755.502 1197.5,748C 1222.94,610.406 1262.1,476.906 1315,347.5C 1339.34,289.485 1368.34,234.151 1402,181.5C 1414.06,165.11 1425.72,148.443 1437,131.5C 1448.89,118.601 1462.72,108.435 1478.5,101C 1483.54,99.1506 1488.54,97.6506 1493.5,96.5 Z"/></g>
<g><path style="opacity:1" fill="#ecedec" d="M 701.5,97.5 C 720.017,97.2628 736.017,103.429 749.5,116C 773.838,137.9 795.004,162.4 813,189.5C 843.885,240.603 870.551,293.936 893,349.5C 944.088,478.177 982.922,610.51 1009.5,746.5C 1009.22,752.884 1006.89,758.384 1002.5,763C 981.411,772.585 960.078,781.585 938.5,790C 929.537,794.257 921.703,792.757 915,785.5C 837.753,678.403 772.753,563.736 720,441.5C 685.47,360.217 660.637,276.051 645.5,189C 649.658,165.533 656.825,143.033 667,121.5C 675.158,108.48 686.658,100.48 701.5,97.5 Z"/></g>
<g><path style="opacity:1" fill="#ecedec" d="M 396.5,327.5 C 403.625,327.284 410.625,328.117 417.5,330C 463.117,346.131 504.451,369.465 541.5,400C 612.679,460.838 676.512,528.338 733,602.5C 788.251,675.72 838.585,752.054 884,831.5C 866.754,847.417 848.921,862.583 830.5,877C 824.981,879.835 819.314,880.169 813.5,878C 742.052,835.53 673.052,789.53 606.5,740C 579.585,719.089 553.251,697.422 527.5,675C 468.464,622.653 415.964,564.82 370,501.5C 352.362,475.889 338.695,448.223 329,418.5C 321.008,376.643 336.841,348.143 376.5,333C 383.289,331.139 389.955,329.306 396.5,327.5 Z"/></g>
<g><path style="opacity:1" fill="#ecedec" d="M 1793.5,330.5 C 1816.44,329.734 1837.77,335.234 1857.5,347C 1877.24,361.84 1885.07,381.673 1881,406.5C 1876.47,442.878 1863.14,475.545 1841,504.5C 1777.13,584.703 1704.96,656.537 1624.5,720C 1550.41,778.41 1472.74,831.743 1391.5,880C 1387.41,880.767 1383.41,880.434 1379.5,879C 1362.83,861 1346.17,843 1329.5,825C 1376.56,741.008 1428.73,660.508 1486,583.5C 1540.7,511.925 1603.53,448.425 1674.5,393C 1706.53,371.976 1739.87,352.976 1774.5,336C 1780.83,333.673 1787.16,331.84 1793.5,330.5 Z"/></g>
<g><path style="opacity:1" fill="#ecedec" d="M 2007.5,650.5 C 2040.15,647.662 2070.15,655.162 2097.5,673C 2106.01,681.858 2113.18,691.692 2119,702.5C 2114.91,738.539 2097.74,766.372 2067.5,786C 2009.47,818.019 1950.8,849.019 1891.5,879C 1807.19,919.816 1719.85,952.816 1629.5,978C 1575.81,993.131 1521.64,1006.3 1467,1017.5C 1460.29,1017.49 1454.96,1014.82 1451,1009.5C 1438.18,984.865 1426.18,959.865 1415,934.5C 1413.65,927.052 1415.49,920.552 1420.5,915C 1506.21,856.788 1595.54,804.121 1688.5,757C 1770.71,716.374 1856.37,685.041 1945.5,663C 1966.11,657.845 1986.78,653.678 2007.5,650.5 Z"/></g>
<g><path style="opacity:1" fill="#ecedec" d="M 163.5,651.5 C 224.27,653.22 283.604,663.387 341.5,682C 419.663,708.08 494.996,740.747 567.5,780C 643.692,820.918 716.692,866.585 786.5,917C 792.048,921.976 794.214,928.142 793,935.5C 786.705,957.416 777.705,978.083 766,997.5C 758.558,1006.72 748.891,1011.05 737,1010.5C 726.684,1010.02 716.518,1008.52 706.5,1006C 598.664,979.832 492.997,946.832 389.5,907C 313.956,877.386 241.29,842.053 171.5,801C 156.167,791 140.833,781 125.5,771C 111.036,757.231 100.203,741.064 93,722.5C 89.2429,692.181 101.41,671.014 129.5,659C 140.672,655.135 152.006,652.635 163.5,651.5 Z"/></g>
<g><path style="opacity:1" fill="#f9ce00" d="M 1080.5,793.5 C 1196.43,788.561 1289.26,831.894 1359,923.5C 1417,1008.55 1432.34,1100.88 1405,1200.5C 1369.9,1307.27 1298.73,1377.43 1191.5,1411C 1088.15,1437.79 993.812,1419.46 908.5,1356C 831.124,1292.24 791.124,1209.91 788.5,1109C 791.441,1002.11 835.107,916.445 919.5,852C 967.862,817.935 1021.53,798.435 1080.5,793.5 Z"/></g>
<g><path style="opacity:1" fill="#ecedec" d="M 2216.5,1106.5 C 2216.5,1110.5 2216.5,1114.5 2216.5,1118.5C 2211.82,1134.03 2202.15,1145.53 2187.5,1153C 2138.15,1179.17 2085.49,1192.84 2029.5,1194C 1985.53,1197.41 1941.53,1200.41 1897.5,1203C 1776.59,1200.84 1656.59,1189.18 1537.5,1168C 1514.66,1164.1 1491.99,1159.43 1469.5,1154C 1465.18,1151.68 1462.35,1148.18 1461,1143.5C 1459.96,1120.3 1458.46,1097.14 1456.5,1074C 1455.97,1065.71 1459.64,1060.38 1467.5,1058C 1594.25,1040.28 1721.25,1024.61 1848.5,1011C 1933.7,1004.01 2018.03,1009.68 2101.5,1028C 2125.84,1032.78 2148.84,1041.11 2170.5,1053C 2185.96,1061.98 2198.79,1073.81 2209,1088.5C 2212.38,1094.24 2214.88,1100.24 2216.5,1106.5 Z"/></g>
<g><path style="opacity:1" fill="#ecedec" d="M -0.5,1114.5 C -0.5,1109.5 -0.5,1104.5 -0.5,1099.5C 6.01406,1068.15 25.0141,1049.32 56.5,1043C 122.154,1030.95 188.154,1021.28 254.5,1014C 415.49,1010.79 575.156,1023.79 733.5,1053C 745.897,1055.14 751.897,1062.47 751.5,1075C 750.123,1098.16 748.956,1121.32 748,1144.5C 746.99,1148.84 744.49,1152.01 740.5,1154C 624.675,1174.89 508.008,1188.89 390.5,1196C 334.832,1199.27 279.165,1199.27 223.5,1196C 166.898,1190.68 110.898,1181.68 55.5,1169C 35.7554,1160.25 19.2554,1147.41 6,1130.5C 2.93542,1125.39 0.768757,1120.06 -0.5,1114.5 Z"/></g>
<g><path style="opacity:1" fill="#ecedec" d="M 1445.5,1197.5 C 1513.57,1214.68 1581.57,1232.18 1649.5,1250C 1725.01,1270.28 1799.01,1294.95 1871.5,1324C 1924.56,1345.86 1974.56,1372.86 2021.5,1405C 2043.85,1422.01 2065.02,1440.51 2085,1460.5C 2095.37,1471.92 2102.04,1485.25 2105,1500.5C 2106.24,1536.59 2088.74,1555.43 2052.5,1557C 2018.42,1557.23 1984.75,1553.56 1951.5,1546C 1822.47,1508.82 1699.81,1456.82 1583.5,1390C 1530.66,1359.42 1478.99,1327.09 1428.5,1293C 1422.01,1286.88 1419.51,1279.38 1421,1270.5C 1428.68,1245.97 1436.84,1221.64 1445.5,1197.5 Z"/></g>
<g><path style="opacity:1" fill="#ecedec" d="M 732.5,1205.5 C 746.183,1202.33 757.017,1206.33 765,1217.5C 774.97,1233.1 783.636,1249.44 791,1266.5C 793.776,1275.69 792.776,1284.36 788,1292.5C 782.429,1298.74 776.262,1304.24 769.5,1309C 692.648,1360.94 612.981,1408.61 530.5,1452C 465.016,1485.27 397.349,1513.27 327.5,1536C 270.212,1554.57 211.546,1561.9 151.5,1558C 125.13,1553.95 106.63,1539.78 96,1515.5C 90.6777,1487.63 98.511,1464.13 119.5,1445C 189.722,1402.52 261.722,1362.86 335.5,1326C 423.931,1285.19 515.597,1253.52 610.5,1231C 651.122,1221.64 691.789,1213.14 732.5,1205.5 Z"/></g>
<g><path style="opacity:1" fill="#ecedec" d="M 1377.5,1334.5 C 1383.24,1334.21 1388.91,1334.71 1394.5,1336C 1402.61,1339.22 1410.27,1343.22 1417.5,1348C 1496.81,1397.48 1573.14,1451.15 1646.5,1509C 1707.76,1557.92 1764.26,1612.09 1816,1671.5C 1838.18,1698.5 1856.84,1727.83 1872,1759.5C 1880.21,1780.76 1883.88,1802.76 1883,1825.5C 1879.59,1858.24 1861.43,1876.41 1828.5,1880C 1800.33,1884.75 1773.66,1880.42 1748.5,1867C 1702.71,1838.89 1660.04,1806.56 1620.5,1770C 1564.73,1716.6 1514.57,1658.76 1470,1596.5C 1424.51,1532.18 1379.51,1467.52 1335,1402.5C 1330.92,1391.34 1331.92,1380.67 1338,1370.5C 1348.89,1355.77 1362.05,1343.77 1377.5,1334.5 Z"/></g>
<g><path style="opacity:1" fill="#ecedec" d="M 824.5,1338.5 C 830.121,1338.65 835.121,1340.49 839.5,1344C 852.699,1358.87 866.866,1372.7 882,1385.5C 882.667,1386.83 882.667,1388.17 882,1389.5C 832.366,1469.11 779.033,1546.11 722,1620.5C 694.787,1654.05 666.453,1686.72 637,1718.5C 593.702,1761.14 549.202,1802.3 503.5,1842C 467.009,1873.38 425.009,1885.05 377.5,1877C 359.919,1871.75 347.752,1860.59 341,1843.5C 330.659,1810.69 332.659,1778.69 347,1747.5C 400.757,1659.05 468.257,1582.21 549.5,1517C 589.83,1484.67 631.83,1454.67 675.5,1427C 722,1398.92 768.334,1370.58 814.5,1342C 817.85,1340.51 821.184,1339.35 824.5,1338.5 Z"/></g>
<g><path style="opacity:1" fill="#ecedec" d="M 919.5,1414.5 C 947.077,1427.62 974.077,1441.79 1000.5,1457C 1005.81,1463.09 1008.48,1470.26 1008.5,1478.5C 995.851,1544.25 981.351,1609.58 965,1674.5C 934.049,1783.39 890.716,1887.06 835,1985.5C 816.506,2019.17 796.506,2051.83 775,2083.5C 759.076,2099.88 739.91,2110.72 717.5,2116C 692.063,2119.2 673.563,2109.37 662,2086.5C 650.548,2063.12 646.214,2038.45 649,2012.5C 655.275,1953.73 668.941,1896.73 690,1841.5C 723.703,1756.43 763.036,1674.1 808,1594.5C 843.014,1533.02 880.181,1473.02 919.5,1414.5 Z"/></g>
<g><path style="opacity:1" fill="#ecedec" d="M 1264.5,1418.5 C 1271.33,1417.96 1277.66,1419.46 1283.5,1423C 1288.3,1426.8 1292.8,1430.97 1297,1435.5C 1361.92,1521.86 1418.92,1613.52 1468,1710.5C 1497.58,1770.99 1521.58,1833.66 1540,1898.5C 1549.88,1940.25 1559.38,1982.08 1568.5,2024C 1565,2040.16 1561.5,2056.33 1558,2072.5C 1554.81,2089.05 1547.31,2103.22 1535.5,2115C 1522.16,2124.34 1507.83,2126 1492.5,2120C 1459.37,2101.54 1431.87,2076.71 1410,2045.5C 1375.43,1995.04 1347.1,1941.04 1325,1883.5C 1271.96,1748.37 1229.79,1609.87 1198.5,1468C 1199.11,1460.78 1202.11,1454.78 1207.5,1450C 1218.33,1442.75 1229.33,1435.75 1240.5,1429C 1248.25,1424.62 1256.25,1421.12 1264.5,1418.5 Z"/></g>
<g><path style="opacity:1" fill="#ecedec" d="M 1108.5,2213.5 C 1104.5,2213.5 1100.5,2213.5 1096.5,2213.5C 1089.28,2211.73 1082.62,2208.56 1076.5,2204C 1056.02,2182.89 1041.85,2158.05 1034,2129.5C 1013.98,2032.5 1005.98,1934.5 1010,1835.5C 1012.43,1764.48 1018.76,1693.82 1029,1623.5C 1036.67,1574.49 1044.33,1525.49 1052,1476.5C 1055.33,1466.07 1062.49,1460.24 1073.5,1459C 1091.15,1457.57 1108.81,1457.24 1126.5,1458C 1135.33,1459 1142.17,1463.16 1147,1470.5C 1150.12,1476.54 1152.46,1482.87 1154,1489.5C 1179.87,1626.77 1197.37,1765.1 1206.5,1904.5C 1201.11,1971.61 1194.61,2038.61 1187,2105.5C 1180.11,2147.81 1159.61,2181.64 1125.5,2207C 1119.98,2209.89 1114.31,2212.06 1108.5,2213.5 Z"/></g>
</g>
</svg>